<svg xmlns="http://www.w3.org/2000/svg" xmlns:xlink="http://www.w3.org/1999/xlink" width="600" zoomAndPan="magnify" viewBox="0 0 450 149.999998" height="200" preserveAspectRatio="xMidYMid meet" version="1.0"><defs><g/><clipPath id="ef4e2af5d5"><path d="M 22 32.367188 L 85 32.367188 L 85 110 L 22 110 Z M 22 32.367188 " clip-rule="nonzero"/></clipPath><clipPath id="5866bfca2c"><path d="M 23 73 L 89 73 L 89 117.789062 L 23 117.789062 Z M 23 73 " clip-rule="nonzero"/></clipPath></defs><path fill="#f39200" d="M 50.710938 75.785156 L 51.140625 75.785156 C 53.140625 75.785156 54.960938 76.605469 56.277344 77.925781 C 56.421875 78.070312 56.558594 78.222656 56.691406 78.378906 C 56.824219 78.222656 56.964844 78.070312 57.109375 77.925781 C 58.425781 76.605469 60.242188 75.785156 62.242188 75.785156 L 62.671875 75.785156 L 62.671875 79.234375 L 62.242188 79.234375 C 61.191406 79.234375 60.234375 79.667969 59.539062 80.363281 C 58.84375 81.0625 58.410156 82.023438 58.410156 83.078125 L 58.410156 83.507812 L 54.972656 83.507812 L 54.972656 83.078125 C 54.972656 82.023438 54.542969 81.0625 53.84375 80.363281 C 53.152344 79.667969 52.191406 79.234375 51.140625 79.234375 L 50.710938 79.234375 Z M 56.691406 71.082031 C 58.058594 71.082031 59.164062 72.191406 59.164062 73.558594 C 59.164062 74.929688 58.058594 76.039062 56.691406 76.039062 C 55.328125 76.039062 54.222656 74.929688 54.222656 73.558594 C 54.222656 72.191406 55.328125 71.082031 56.691406 71.082031 Z M 74.167969 59.5 L 74.511719 59.757812 C 76.109375 60.964844 77.070312 62.71875 77.332031 64.566406 C 77.359375 64.769531 77.378906 64.972656 77.390625 65.179688 C 77.589844 65.132812 77.792969 65.097656 77.992188 65.066406 C 79.835938 64.808594 81.78125 65.25 83.378906 66.457031 L 83.722656 66.714844 L 81.65625 69.46875 L 81.3125 69.210938 C 80.472656 68.574219 79.445312 68.34375 78.472656 68.480469 C 77.5 68.617188 76.578125 69.125 75.945312 69.96875 L 75.6875 70.3125 L 72.941406 68.238281 L 73.199219 67.894531 C 73.832031 67.050781 74.0625 66.023438 73.925781 65.046875 C 73.789062 64.070312 73.285156 63.148438 72.445312 62.511719 L 72.101562 62.253906 Z M 81.769531 59.351562 C 82.859375 60.171875 83.078125 61.726562 82.257812 62.820312 C 81.433594 63.914062 79.886719 64.132812 78.796875 63.308594 C 77.703125 62.484375 77.488281 60.933594 78.308594 59.839844 C 79.128906 58.746094 80.679688 58.527344 81.769531 59.351562 Z M 34.082031 57.066406 L 34.46875 56.878906 C 36.269531 56.003906 38.257812 55.941406 40.019531 56.550781 C 40.214844 56.621094 40.402344 56.695312 40.589844 56.777344 C 40.640625 56.578125 40.699219 56.382812 40.765625 56.1875 C 41.375 54.421875 42.652344 52.886719 44.453125 52.011719 L 44.839844 51.824219 L 46.34375 54.921875 L 45.957031 55.109375 C 45.011719 55.570312 44.335938 56.382812 44.015625 57.3125 C 43.695312 58.246094 43.726562 59.300781 44.1875 60.246094 L 44.375 60.636719 L 41.28125 62.140625 L 41.09375 61.753906 C 40.632812 60.804688 39.828125 60.132812 38.898438 59.808594 C 37.96875 59.488281 36.917969 59.519531 35.972656 59.980469 L 35.585938 60.167969 Z M 37.40625 50.214844 C 38.636719 49.617188 40.113281 50.128906 40.710938 51.359375 C 41.308594 52.589844 40.796875 54.074219 39.570312 54.671875 C 38.34375 55.269531 36.863281 54.757812 36.265625 53.527344 C 35.667969 52.296875 36.179688 50.8125 37.40625 50.214844 Z M 65.644531 38.316406 L 66.058594 38.441406 C 67.972656 39.023438 69.472656 40.339844 70.351562 41.984375 C 70.449219 42.164062 70.535156 42.351562 70.617188 42.539062 C 70.789062 42.429688 70.964844 42.324219 71.144531 42.226562 C 72.789062 41.347656 74.765625 41.09375 76.679688 41.675781 L 77.09375 41.800781 L 76.09375 45.101562 L 75.679688 44.972656 C 74.675781 44.667969 73.632812 44.804688 72.765625 45.265625 C 71.898438 45.730469 71.207031 46.523438 70.898438 47.535156 L 70.777344 47.945312 L 67.484375 46.945312 L 67.609375 46.53125 C 67.917969 45.523438 67.78125 44.480469 67.320312 43.609375 C 66.855469 42.738281 66.066406 42.046875 65.058594 41.738281 L 64.644531 41.613281 Z M 72.734375 35.558594 C 74.039062 35.953125 74.773438 37.339844 74.378906 38.648438 C 73.980469 39.957031 72.601562 40.695312 71.296875 40.300781 C 69.988281 39.902344 69.253906 38.519531 69.648438 37.207031 C 70.046875 35.898438 71.425781 35.160156 72.734375 35.558594 Z M 72.734375 35.558594 " fill-opacity="1" fill-rule="nonzero"/><path fill="#96c11f" d="M 84.324219 73.871094 L 84.464844 74.28125 C 85.117188 76.175781 84.941406 78.167969 84.128906 79.847656 C 84.039062 80.03125 83.941406 80.210938 83.835938 80.386719 C 84.027344 80.460938 84.214844 80.542969 84.398438 80.632812 C 86.074219 81.449219 87.441406 82.902344 88.097656 84.800781 L 88.238281 85.207031 L 84.988281 86.332031 L 84.847656 85.925781 C 84.503906 84.929688 83.78125 84.164062 82.898438 83.734375 C 82.011719 83.300781 80.96875 83.207031 79.972656 83.554688 L 79.566406 83.695312 L 78.441406 80.4375 L 78.847656 80.292969 C 79.84375 79.949219 80.605469 79.226562 81.035156 78.339844 C 81.464844 77.453125 81.558594 76.40625 81.214844 75.40625 L 81.074219 75 Z M 90.714844 78 C 91.160156 79.292969 90.476562 80.703125 89.1875 81.152344 C 87.898438 81.601562 86.488281 80.914062 86.042969 79.621094 C 85.597656 78.328125 86.28125 76.917969 87.570312 76.46875 C 88.859375 76.023438 90.265625 76.707031 90.714844 78 Z M 27.160156 68.273438 L 27.539062 68.070312 C 29.304688 67.128906 31.296875 66.996094 33.078125 67.542969 C 33.273438 67.601562 33.464844 67.667969 33.65625 67.746094 C 33.699219 67.546875 33.75 67.347656 33.808594 67.152344 C 34.355469 65.363281 35.574219 63.785156 37.34375 62.84375 L 37.722656 62.640625 L 39.335938 65.683594 L 38.957031 65.886719 C 38.027344 66.382812 37.386719 67.214844 37.097656 68.160156 C 36.808594 69.101562 36.878906 70.152344 37.371094 71.082031 L 37.574219 71.464844 L 34.539062 73.082031 L 34.335938 72.703125 C 33.84375 71.769531 33.011719 71.125 32.070312 70.839844 C 31.132812 70.550781 30.082031 70.617188 29.152344 71.113281 L 28.773438 71.316406 Z M 30.238281 61.304688 C 31.445312 60.660156 32.9375 61.121094 33.578125 62.328125 C 34.222656 63.535156 33.765625 65.035156 32.558594 65.679688 C 31.351562 66.320312 29.855469 65.863281 29.21875 64.652344 C 28.574219 63.445312 29.03125 61.945312 30.238281 61.304688 Z M 60.265625 50.949219 L 60.683594 51.054688 C 62.621094 51.550781 64.179688 52.792969 65.132812 54.398438 C 65.238281 54.574219 65.335938 54.757812 65.425781 54.941406 C 65.589844 54.820312 65.761719 54.710938 65.9375 54.605469 C 67.539062 53.652344 69.503906 53.308594 71.441406 53.800781 L 71.859375 53.910156 L 71.007812 57.25 L 70.59375 57.144531 C 69.574219 56.882812 68.539062 57.066406 67.695312 57.566406 C 66.847656 58.070312 66.195312 58.894531 65.933594 59.917969 L 65.828125 60.335938 L 62.496094 59.484375 L 62.601562 59.066406 C 62.863281 58.042969 62.679688 57.007812 62.175781 56.160156 C 61.675781 55.3125 60.851562 54.65625 59.835938 54.394531 L 59.417969 54.289062 Z M 67.21875 47.871094 C 68.542969 48.207031 69.339844 49.554688 69.003906 50.882812 C 68.667969 52.207031 67.324219 53.007812 66 52.671875 C 64.679688 52.335938 63.878906 50.984375 64.214844 49.660156 C 64.550781 48.332031 65.898438 47.53125 67.21875 47.871094 Z M 34.636719 44.277344 L 35.03125 44.105469 C 36.867188 43.304688 38.859375 43.328125 40.59375 44.011719 C 40.78125 44.089844 40.96875 44.171875 41.152344 44.261719 C 41.210938 44.066406 41.277344 43.871094 41.351562 43.679688 C 42.035156 41.941406 43.375 40.464844 45.210938 39.664062 L 45.605469 39.492188 L 46.976562 42.652344 L 46.582031 42.824219 C 45.617188 43.242188 44.914062 44.023438 44.550781 44.941406 C 44.191406 45.859375 44.179688 46.914062 44.597656 47.878906 L 44.769531 48.273438 L 41.617188 49.652344 L 41.445312 49.257812 C 41.027344 48.289062 40.25 47.582031 39.332031 47.21875 C 38.417969 46.859375 37.367188 46.84375 36.402344 47.265625 L 36.007812 47.4375 Z M 38.25 37.570312 C 39.5 37.023438 40.957031 37.597656 41.5 38.855469 C 42.042969 40.109375 41.472656 41.570312 40.222656 42.113281 C 38.96875 42.660156 37.511719 42.085938 36.96875 40.832031 C 36.425781 39.578125 36.996094 38.117188 38.25 37.570312 Z M 38.25 37.570312 " fill-opacity="1" fill-rule="nonzero"/><path fill="#735ba3" d="M 25.421875 73.175781 L 25.230469 73.558594 C 24.335938 75.355469 24.253906 77.351562 24.84375 79.121094 C 24.910156 79.316406 24.984375 79.511719 25.0625 79.699219 C 24.863281 79.746094 24.667969 79.804688 24.472656 79.867188 C 22.707031 80.460938 21.164062 81.722656 20.269531 83.519531 L 20.078125 83.90625 L 23.152344 85.445312 L 23.34375 85.058594 C 23.816406 84.117188 24.628906 83.449219 25.5625 83.136719 C 26.496094 82.824219 27.542969 82.867188 28.484375 83.339844 L 28.871094 83.53125 L 30.40625 80.449219 L 30.023438 80.253906 C 29.082031 79.785156 28.417969 78.96875 28.105469 78.03125 C 27.792969 77.097656 27.835938 76.042969 28.308594 75.101562 L 28.5 74.714844 Z M 18.550781 76.4375 C 17.941406 77.660156 18.4375 79.148438 19.660156 79.761719 C 20.878906 80.371094 22.363281 79.875 22.972656 78.652344 C 23.582031 77.425781 23.089844 75.941406 21.867188 75.328125 C 20.648438 74.71875 19.164062 75.214844 18.550781 76.4375 Z M 88.863281 62.738281 L 89.054688 63.125 C 89.953125 64.917969 90.03125 66.914062 89.441406 68.6875 C 89.378906 68.878906 89.304688 69.070312 89.222656 69.261719 C 89.421875 69.308594 89.621094 69.367188 89.8125 69.429688 C 91.582031 70.023438 93.125 71.285156 94.019531 73.082031 L 94.210938 73.46875 L 91.132812 75.007812 L 90.941406 74.621094 C 90.472656 73.675781 89.65625 73.011719 88.726562 72.699219 C 87.792969 72.386719 86.742188 72.429688 85.800781 72.902344 L 85.417969 73.09375 L 83.878906 70.011719 L 84.265625 69.816406 C 85.207031 69.347656 85.871094 68.53125 86.179688 67.59375 C 86.492188 66.660156 86.453125 65.605469 85.980469 64.664062 L 85.789062 64.277344 Z M 49.25 62.304688 L 49.679688 62.296875 C 51.679688 62.253906 53.515625 63.035156 54.859375 64.328125 C 55.007812 64.472656 55.148438 64.617188 55.285156 64.773438 C 55.414062 64.613281 55.550781 64.460938 55.691406 64.3125 C 56.980469 62.964844 58.78125 62.109375 60.78125 62.066406 L 61.210938 62.058594 L 61.28125 65.503906 L 60.851562 65.511719 C 59.800781 65.535156 58.851562 65.988281 58.171875 66.699219 C 57.488281 67.410156 57.078125 68.378906 57.097656 69.433594 L 57.109375 69.863281 L 53.671875 69.933594 L 53.664062 69.503906 C 53.640625 68.449219 53.1875 67.5 52.480469 66.816406 C 51.769531 66.132812 50.804688 65.71875 49.753906 65.742188 L 49.320312 65.75 Z M 95.734375 66 C 96.34375 67.226562 95.847656 68.710938 94.628906 69.324219 C 93.40625 69.933594 91.921875 69.4375 91.3125 68.214844 C 90.703125 66.992188 91.199219 65.503906 92.421875 64.890625 C 93.640625 64.277344 95.125 64.777344 95.734375 66 Z M 55.132812 57.476562 C 56.5 57.449219 57.628906 58.535156 57.65625 59.902344 C 57.683594 61.273438 56.601562 62.402344 55.238281 62.429688 C 53.871094 62.460938 52.742188 61.375 52.714844 60.007812 C 52.6875 58.636719 53.769531 57.503906 55.132812 57.476562 Z M 55.132812 57.476562 " fill-opacity="1" fill-rule="nonzero"/><g clip-path="url(#ef4e2af5d5)"><path fill="#ea4b6d" d="M 42.996094 104.988281 C 43.261719 105.929688 43.667969 107.410156 43.710938 107.773438 C 43.777344 108.316406 45.730469 108.054688 46.285156 107.417969 C 46.839844 106.785156 46.25 106.152344 45.519531 106.289062 C 44.785156 106.425781 44.347656 107.058594 44.347656 107.058594 L 43.703125 104.820312 C 44.230469 104.6875 44.761719 104.523438 45.289062 104.320312 C 45.289062 104.320312 44.125 101.566406 43.078125 99.335938 L 44.285156 98.855469 L 44.023438 98.21875 C 44.023438 98.21875 46.25 96.765625 46.832031 96.667969 C 47.410156 96.570312 48.140625 97.074219 48.257812 97 C 48.378906 96.925781 48.554688 96.179688 48.339844 95.878906 C 48.125 95.574219 46.738281 95.664062 46.738281 95.664062 C 46.738281 95.664062 46.984375 94.890625 46.804688 94.734375 C 46.628906 94.578125 46.234375 94.363281 46.234375 94.363281 C 46.234375 94.363281 46.226562 95.839844 45.65625 96.414062 C 45.082031 96.988281 42.46875 98.082031 40.710938 98.136719 C 38.425781 98.417969 35.609375 97.777344 35.007812 96.964844 C 34.402344 96.148438 34.246094 95.503906 34.246094 95.503906 C 34.246094 95.503906 33.839844 95.683594 33.933594 96 C 34.027344 96.320312 34.320312 96.882812 34.320312 96.882812 C 34.320312 96.882812 32.613281 97.304688 32.421875 97.800781 C 32.234375 98.296875 32.378906 98.570312 32.378906 98.570312 C 32.378906 98.570312 32.34375 99.308594 32.554688 99.273438 C 32.761719 99.238281 34.199219 97.71875 34.820312 97.847656 C 35.4375 97.976562 37.175781 98.992188 37.175781 98.992188 L 36.84375 99.785156 L 38.425781 99.925781 L 37.859375 105.339844 C 37.859375 105.339844 38.613281 105.414062 39.769531 105.371094 L 39.976562 107.945312 C 39.976562 107.945312 39.359375 107.574219 38.640625 107.796875 C 37.921875 108.015625 37.601562 108.875 38.332031 109.191406 C 39.058594 109.507812 40.9375 108.828125 40.808594 108.300781 C 40.71875 107.9375 40.570312 106.3125 40.484375 105.332031 C 41.234375 105.28125 42.09375 105.175781 42.996094 104.988281 Z M 47.417969 91.9375 C 47.429688 91.945312 47.433594 91.949219 47.433594 91.949219 C 47.433594 91.949219 47.429688 91.945312 47.417969 91.9375 C 47.199219 91.746094 44.761719 89.71875 43.042969 92.097656 C 41.671875 89.941406 37.445312 91.054688 37.195312 92.71875 C 37.195312 92.71875 36.523438 91.792969 35.382812 91.890625 C 34.242188 91.984375 33.417969 93.007812 33.417969 93.007812 C 34.605469 93.238281 34.789062 94.8125 37.039062 93.515625 C 37.039062 93.515625 36.371094 97.992188 40.203125 97.578125 C 44.035156 97.164062 43.90625 94.617188 43.433594 93.058594 C 43.433594 93.058594 44.675781 93.839844 45.957031 92.746094 C 47.046875 91.816406 47.351562 91.890625 47.417969 91.9375 Z M 38.285156 95.433594 L 42.59375 94.664062 C 42.59375 94.664062 41.0625 98.125 38.285156 95.433594 Z M 38.492188 69.796875 L 38.90625 69.679688 C 40.828125 69.128906 42.800781 69.414062 44.429688 70.320312 C 44.609375 70.421875 44.78125 70.527344 44.953125 70.640625 C 45.035156 70.453125 45.128906 70.273438 45.226562 70.09375 C 46.132812 68.460938 47.65625 67.171875 49.578125 66.621094 L 49.992188 66.5 L 50.9375 69.816406 L 50.523438 69.933594 C 49.511719 70.222656 48.710938 70.90625 48.234375 71.765625 C 47.753906 72.628906 47.601562 73.667969 47.890625 74.683594 L 48.011719 75.097656 L 44.707031 76.046875 L 44.585938 75.632812 C 44.296875 74.617188 43.621094 73.8125 42.757812 73.335938 C 41.898438 72.855469 40.859375 72.703125 39.847656 72.992188 L 39.4375 73.113281 Z M 42.953125 63.625 C 44.265625 63.25 45.632812 64.011719 46.007812 65.328125 C 46.382812 66.644531 45.621094 68.015625 44.308594 68.390625 C 43 68.765625 41.632812 68.003906 41.253906 66.691406 C 40.878906 65.375 41.640625 64.003906 42.953125 63.625 Z M 22.328125 55.667969 L 22.671875 55.40625 C 24.257812 54.183594 26.199219 53.722656 28.042969 53.96875 C 28.246094 53.996094 28.449219 54.03125 28.648438 54.074219 C 28.660156 53.871094 28.675781 53.664062 28.703125 53.460938 C 28.945312 51.609375 29.890625 49.851562 31.480469 48.628906 L 31.820312 48.367188 L 33.914062 51.101562 L 33.570312 51.363281 C 32.738281 52.007812 32.238281 52.933594 32.109375 53.910156 C 31.984375 54.890625 32.222656 55.914062 32.863281 56.75 L 33.125 57.09375 L 30.398438 59.191406 L 30.136719 58.851562 C 29.496094 58.011719 28.570312 57.515625 27.59375 57.386719 C 26.621094 57.257812 25.597656 57.5 24.761719 58.140625 L 24.421875 58.402344 Z M 74.71875 46.410156 L 75.054688 46.679688 C 76.613281 47.933594 77.523438 49.714844 77.726562 51.570312 C 77.75 51.773438 77.761719 51.980469 77.769531 52.183594 C 77.96875 52.144531 78.171875 52.113281 78.375 52.089844 C 80.226562 51.886719 82.15625 52.386719 83.71875 53.640625 L 84.054688 53.910156 L 81.902344 56.601562 L 81.566406 56.332031 C 80.746094 55.671875 79.730469 55.40625 78.753906 55.515625 C 77.773438 55.625 76.839844 56.101562 76.179688 56.925781 L 75.914062 57.261719 L 73.230469 55.105469 L 73.5 54.769531 C 74.15625 53.949219 74.417969 52.929688 74.308594 51.949219 C 74.203125 50.96875 73.722656 50.03125 72.902344 49.371094 L 72.566406 49.101562 Z M 24.21875 48.285156 C 25.300781 47.453125 26.851562 47.65625 27.683594 48.742188 C 28.515625 49.828125 28.308594 51.382812 27.226562 52.214844 C 26.144531 53.050781 24.59375 52.84375 23.761719 51.757812 C 22.929688 50.671875 23.136719 49.117188 24.21875 48.285156 Z M 82.320312 46.488281 C 83.382812 47.34375 83.554688 48.902344 82.703125 49.972656 C 81.847656 51.039062 80.292969 51.210938 79.226562 50.355469 C 78.164062 49.5 77.992188 47.941406 78.84375 46.875 C 79.699219 45.804688 81.253906 45.632812 82.320312 46.488281 Z M 49.644531 37.703125 L 50.074219 37.664062 C 52.066406 37.488281 53.949219 38.144531 55.378906 39.34375 C 55.535156 39.472656 55.683594 39.613281 55.832031 39.757812 C 55.949219 39.589844 56.074219 39.425781 56.203125 39.269531 C 57.402344 37.839844 59.140625 36.863281 61.132812 36.6875 L 61.5625 36.648438 L 61.863281 40.082031 L 61.433594 40.121094 C 60.386719 40.210938 59.472656 40.726562 58.839844 41.484375 C 58.207031 42.238281 57.863281 43.234375 57.953125 44.285156 L 57.992188 44.714844 L 54.566406 45.015625 L 54.53125 44.585938 C 54.4375 43.535156 53.921875 42.617188 53.167969 41.984375 C 52.414062 41.351562 51.421875 41.003906 50.375 41.097656 L 49.949219 41.136719 Z M 55.191406 32.488281 C 56.550781 32.367188 57.75 33.375 57.871094 34.738281 C 57.988281 36.101562 56.984375 37.304688 55.625 37.425781 C 54.265625 37.542969 53.066406 36.535156 52.945312 35.175781 C 52.828125 33.8125 53.832031 32.609375 55.191406 32.488281 Z M 55.191406 32.488281 " fill-opacity="1" fill-rule="nonzero"/></g><path fill="#14aae0" d="M 70.355469 106.183594 C 70.257812 107.015625 70.070312 108.617188 70.085938 108.886719 C 70.109375 109.257812 72.542969 109.742188 72.695312 109.546875 C 72.84375 109.355469 72.195312 108.207031 71.394531 107.917969 L 71.511719 107.160156 L 70.945312 107.03125 L 71.03125 106.253906 L 72.015625 106.351562 L 72.097656 105.121094 C 72.425781 104.996094 73.210938 104.691406 73.277344 104.59375 C 73.367188 104.46875 73.179688 103.488281 73.179688 103.488281 L 75.441406 101.847656 C 75.441406 101.847656 75.085938 101.164062 74.59375 100.632812 L 74.609375 100.613281 C 74.609375 100.613281 73.253906 98.460938 70.863281 97.988281 C 68.476562 97.515625 66.117188 98.832031 66.117188 98.832031 C 65.390625 99.121094 64.683594 99.714844 64.683594 99.714844 L 66.15625 102.09375 C 66.15625 102.09375 65.609375 102.929688 65.644531 103.078125 C 65.664062 103.160156 65.945312 103.453125 66.207031 103.707031 L 65.609375 105.113281 L 66.769531 105.457031 L 66.5625 106.164062 L 65.992188 106.066406 L 65.8125 106.8125 C 64.964844 106.769531 63.925781 107.585938 63.992188 107.824219 C 64.058594 108.058594 66.492188 108.542969 66.652344 108.207031 C 66.769531 107.964844 67.191406 106.464844 67.417969 105.648438 L 68.253906 105.894531 L 69.199219 104.167969 L 69.394531 106.085938 Z M 72.234375 103.132812 L 74.210938 101.714844 L 74.058594 101.328125 L 73.714844 101.777344 L 72.417969 100.433594 Z M 68.15625 99.144531 L 66.996094 101.859375 L 65.875 100.0625 L 66.511719 99.402344 L 66.835938 99.867188 Z M 71.085938 97.507812 C 69.371094 97.164062 68.003906 96.035156 68.464844 93.382812 C 68.921875 90.726562 70.464844 89.695312 70.464844 89.695312 C 70.464844 89.695312 70.972656 90.496094 71.832031 90.667969 C 72.6875 90.835938 74.839844 91.390625 75.382812 91.851562 C 75.929688 92.308594 75.675781 92.800781 75.675781 92.800781 C 75.675781 92.800781 76.355469 93.222656 76.09375 94.382812 C 75.832031 95.542969 74.988281 98.214844 71.085938 97.507812 Z M 69.792969 94.867188 C 69.792969 94.867188 69.507812 96.238281 70.882812 96.773438 C 72.253906 97.308594 73.199219 96.445312 73.367188 95.730469 C 72.085938 96.054688 70.800781 95.707031 69.792969 94.867188 Z M 73.511719 69.816406 L 73.128906 69.617188 C 71.363281 68.675781 69.375 68.542969 67.59375 69.085938 C 67.398438 69.148438 67.207031 69.214844 67.015625 69.292969 C 66.972656 69.089844 66.921875 68.890625 66.859375 68.695312 C 66.316406 66.910156 65.09375 65.332031 63.328125 64.390625 L 62.949219 64.1875 L 61.335938 67.230469 L 61.714844 67.433594 C 62.644531 67.929688 63.285156 68.761719 63.574219 69.703125 C 63.859375 70.648438 63.792969 71.699219 63.296875 72.628906 L 63.097656 73.011719 L 66.132812 74.628906 L 66.332031 74.246094 C 66.828125 73.316406 67.660156 72.671875 68.597656 72.382812 C 69.539062 72.09375 70.585938 72.164062 71.515625 72.660156 L 71.894531 72.863281 Z M 22.960938 59.78125 L 22.722656 60.140625 C 21.628906 61.820312 21.320312 63.796875 21.703125 65.625 C 21.742188 65.824219 21.792969 66.023438 21.851562 66.21875 C 21.648438 66.246094 21.449219 66.277344 21.25 66.320312 C 19.425781 66.703125 17.746094 67.78125 16.652344 69.460938 L 16.417969 69.820312 L 19.292969 71.707031 L 19.53125 71.347656 C 20.105469 70.464844 20.992188 69.894531 21.953125 69.695312 C 22.917969 69.492188 23.953125 69.65625 24.835938 70.230469 L 25.195312 70.46875 L 27.074219 67.582031 L 26.714844 67.34375 C 25.835938 66.769531 25.269531 65.878906 25.066406 64.917969 C 24.863281 63.949219 25.027344 62.910156 25.601562 62.027344 L 25.839844 61.667969 Z M 70.433594 62.847656 C 69.226562 62.207031 67.730469 62.664062 67.089844 63.875 C 66.449219 65.082031 66.90625 66.582031 68.113281 67.226562 C 69.316406 67.867188 70.8125 67.40625 71.453125 66.199219 C 72.09375 64.992188 71.636719 63.492188 70.433594 62.847656 Z M 15.761719 62.226562 C 15.011719 63.375 15.335938 64.910156 16.476562 65.65625 C 17.621094 66.40625 19.152344 66.085938 19.898438 64.9375 C 20.644531 63.792969 20.324219 62.257812 19.179688 61.507812 C 18.039062 60.761719 16.507812 61.082031 15.761719 62.226562 Z M 87.578125 50.027344 L 87.832031 50.375 C 89.03125 51.980469 89.464844 53.929688 89.199219 55.78125 C 89.167969 55.980469 89.128906 56.183594 89.085938 56.382812 C 89.289062 56.394531 89.492188 56.417969 89.695312 56.449219 C 91.539062 56.714844 93.28125 57.683594 94.480469 59.292969 L 94.734375 59.636719 L 91.980469 61.699219 L 91.722656 61.355469 C 91.09375 60.507812 90.175781 60 89.203125 59.859375 C 88.230469 59.71875 87.203125 59.945312 86.359375 60.574219 L 86.015625 60.835938 L 83.957031 58.074219 L 84.304688 57.8125 C 85.144531 57.183594 85.652344 56.261719 85.796875 55.285156 C 85.9375 54.308594 85.710938 53.28125 85.078125 52.4375 L 84.820312 52.089844 Z M 46.636719 50.085938 L 47.066406 50.042969 C 49.054688 49.828125 50.949219 50.449219 52.398438 51.625 C 52.558594 51.753906 52.710938 51.886719 52.859375 52.03125 C 52.972656 51.859375 53.09375 51.695312 53.222656 51.535156 C 54.394531 50.082031 56.113281 49.074219 58.105469 48.863281 L 58.53125 48.816406 L 58.894531 52.246094 L 58.46875 52.289062 C 57.421875 52.402344 56.515625 52.933594 55.898438 53.703125 C 55.28125 54.46875 54.953125 55.46875 55.0625 56.519531 L 55.109375 56.945312 L 51.6875 57.3125 L 51.644531 56.882812 C 51.53125 55.835938 51.003906 54.925781 50.238281 54.304688 C 49.472656 53.6875 48.476562 53.355469 47.429688 53.46875 L 47 53.515625 Z M 94.914062 52.015625 C 95.730469 53.113281 95.507812 54.664062 94.414062 55.484375 C 93.320312 56.304688 91.773438 56.078125 90.957031 54.984375 C 90.136719 53.886719 90.363281 52.332031 91.457031 51.515625 C 92.550781 50.695312 94.097656 50.921875 94.914062 52.015625 Z M 52.089844 44.773438 C 53.445312 44.628906 54.664062 45.613281 54.808594 46.976562 C 54.949219 48.335938 53.96875 49.558594 52.613281 49.703125 C 51.253906 49.847656 50.035156 48.859375 49.890625 47.5 C 49.75 46.140625 50.730469 44.917969 52.089844 44.773438 Z M 52.089844 44.773438 " fill-opacity="1" fill-rule="nonzero"/><g clip-path="url(#5866bfca2c)"><path fill="#997008" d="M 52.355469 114.847656 L 53.050781 114.847656 L 53.050781 115.917969 C 53.660156 116.378906 54.609375 116.675781 55.675781 116.675781 C 56.746094 116.675781 57.695312 116.378906 58.304688 115.917969 L 58.304688 114.847656 L 88.089844 114.847656 L 88.089844 115.957031 L 60.152344 115.957031 C 59.472656 117.023438 57.726562 117.785156 55.675781 117.785156 C 53.628906 117.785156 51.882812 117.023438 51.199219 115.957031 L 23.261719 115.957031 L 23.261719 114.847656 Z M 52.085938 108.304688 C 44.355469 104.875 33.269531 112.738281 24.589844 112.738281 L 24.589844 114.015625 C 33.828125 114.015625 49.5 108.074219 55.675781 114.347656 C 61.855469 108.074219 77.523438 114.015625 86.761719 114.015625 L 86.761719 112.738281 C 78.097656 112.738281 67.035156 104.902344 59.308594 108.289062 C 60.453125 99.285156 58.742188 85.375 50.464844 80.734375 C 46.671875 78.605469 45.316406 76.703125 45.316406 76.703125 C 45.316406 76.703125 44.273438 77.699219 45.316406 79.238281 C 46.355469 80.777344 46.984375 81.640625 46.984375 81.640625 C 46.984375 81.640625 42.832031 80.871094 41.25 78.289062 C 39.667969 75.707031 38.359375 75.527344 37.410156 75.886719 L 41 79.988281 C 41 79.988281 40.367188 80.007812 40.121094 79.875 C 39.871094 79.738281 36.574219 76.226562 35.804688 75.84375 C 35.039062 75.457031 34.179688 75.773438 34.179688 75.773438 L 39.308594 80.890625 C 39.308594 80.890625 38.605469 80.914062 37.839844 80.394531 C 37.070312 79.875 33.910156 76.363281 33.140625 75.933594 C 32.375 75.503906 31.402344 75.957031 31.402344 75.957031 L 37.410156 81.480469 C 37.410156 81.480469 36.640625 81.59375 36.191406 81.230469 C 35.738281 80.871094 32.304688 77.609375 31.492188 77.222656 C 30.675781 76.839844 30 77.3125 30 77.3125 C 30 77.3125 34.519531 82.25 36.460938 83.132812 C 38.402344 84.015625 47.007812 84.890625 50.832031 86.382812 C 55.515625 88.214844 56.066406 99.339844 52.085938 108.304688 Z M 69.300781 76.789062 C 69.300781 76.789062 70.476562 77.363281 69.460938 79.078125 C 68.445312 80.796875 67.082031 83.15625 67.941406 83.578125 C 68.796875 84.003906 72.78125 82.082031 72.78125 82.082031 C 71.542969 82.398438 70.308594 82.714844 69.105469 82.710938 C 70.242188 81.5625 70.972656 78.566406 71.445312 77.960938 C 71.914062 77.351562 72.539062 77.320312 72.539062 77.320312 L 70.980469 81.316406 L 71.585938 81.164062 C 71.585938 81.164062 72.953125 77.285156 73.332031 76.671875 C 73.707031 76.0625 74.773438 75.816406 74.773438 75.816406 L 72.824219 81.15625 C 72.824219 81.15625 73.417969 80.886719 73.683594 80.464844 C 73.949219 80.039062 75.230469 76.039062 75.617188 75.476562 C 76.003906 74.914062 77.050781 74.574219 77.050781 74.574219 L 75.117188 80.097656 C 75.117188 80.097656 75.691406 79.886719 75.867188 79.5 C 76.042969 79.113281 77.558594 74.566406 77.832031 74.1875 C 78.105469 73.8125 79.566406 73.519531 79.566406 73.519531 C 79.566406 73.519531 77.238281 81.105469 76.265625 82.835938 C 75.296875 84.566406 72.878906 85.507812 66.226562 86.277344 C 59.574219 87.046875 60.21875 92.476562 60.21875 92.476562 C 58.402344 88.269531 57.5 84.804688 62.5625 82.503906 C 66.304688 80.804688 68.476562 78.234375 69.300781 76.789062 Z M 69.300781 76.789062 " fill-opacity="1" fill-rule="evenodd"/></g><g fill="#113980" fill-opacity="1"><g transform="translate(107.645277, 76.952163)"><g><path d="M 20.40625 -2.9375 C 19.550781 -1.90625 18.335938 -1.101562 16.765625 -0.53125 C 15.191406 0.03125 13.453125 0.3125 11.546875 0.3125 C 9.535156 0.3125 7.773438 -0.125 6.265625 -1 C 4.753906 -1.875 3.585938 -3.144531 2.765625 -4.8125 C 1.941406 -6.476562 1.519531 -8.4375 1.5 -10.6875 L 1.5 -12.265625 C 1.5 -14.578125 1.890625 -16.578125 2.671875 -18.265625 C 3.453125 -19.960938 4.578125 -21.257812 6.046875 -22.15625 C 7.515625 -23.050781 9.234375 -23.5 11.203125 -23.5 C 13.953125 -23.5 16.101562 -22.84375 17.65625 -21.53125 C 19.207031 -20.21875 20.125 -18.3125 20.40625 -15.8125 L 15.765625 -15.8125 C 15.546875 -17.132812 15.070312 -18.101562 14.34375 -18.71875 C 13.625 -19.332031 12.628906 -19.640625 11.359375 -19.640625 C 9.734375 -19.640625 8.492188 -19.03125 7.640625 -17.8125 C 6.796875 -16.59375 6.367188 -14.78125 6.359375 -12.375 L 6.359375 -10.890625 C 6.359375 -8.460938 6.816406 -6.625 7.734375 -5.375 C 8.660156 -4.132812 10.015625 -3.515625 11.796875 -3.515625 C 13.585938 -3.515625 14.867188 -3.898438 15.640625 -4.671875 L 15.640625 -8.65625 L 11.296875 -8.65625 L 11.296875 -12.1875 L 20.40625 -12.1875 Z M 20.40625 -2.9375 "/></g></g></g><g fill="#113980" fill-opacity="1"><g transform="translate(129.843518, 76.952163)"><g><path d="M 9.703125 0.3125 C 7.171875 0.3125 5.109375 -0.457031 3.515625 -2 C 1.929688 -3.550781 1.140625 -5.617188 1.140625 -8.203125 L 1.140625 -8.640625 C 1.140625 -10.367188 1.472656 -11.914062 2.140625 -13.28125 C 2.816406 -14.644531 3.765625 -15.695312 4.984375 -16.4375 C 6.210938 -17.175781 7.613281 -17.546875 9.1875 -17.546875 C 11.539062 -17.546875 13.394531 -16.800781 14.75 -15.3125 C 16.101562 -13.832031 16.78125 -11.726562 16.78125 -9 L 16.78125 -7.125 L 5.8125 -7.125 C 5.957031 -5.988281 6.40625 -5.082031 7.15625 -4.40625 C 7.90625 -3.726562 8.851562 -3.390625 10 -3.390625 C 11.769531 -3.390625 13.15625 -4.03125 14.15625 -5.3125 L 16.421875 -2.78125 C 15.722656 -1.8125 14.785156 -1.050781 13.609375 -0.5 C 12.429688 0.0390625 11.128906 0.3125 9.703125 0.3125 Z M 9.171875 -13.828125 C 8.253906 -13.828125 7.507812 -13.515625 6.9375 -12.890625 C 6.375 -12.273438 6.015625 -11.394531 5.859375 -10.25 L 12.265625 -10.25 L 12.265625 -10.625 C 12.242188 -11.644531 11.96875 -12.429688 11.4375 -12.984375 C 10.90625 -13.546875 10.148438 -13.828125 9.171875 -13.828125 Z M 9.171875 -13.828125 "/></g></g></g><g fill="#113980" fill-opacity="1"><g transform="translate(147.458897, 76.952163)"><g><path d="M 6 -17.234375 L 6.140625 -15.234375 C 7.378906 -16.773438 9.03125 -17.546875 11.09375 -17.546875 C 12.925781 -17.546875 14.285156 -17.007812 15.171875 -15.9375 C 16.066406 -14.863281 16.523438 -13.257812 16.546875 -11.125 L 16.546875 0 L 11.9375 0 L 11.9375 -11.015625 C 11.9375 -11.992188 11.722656 -12.703125 11.296875 -13.140625 C 10.878906 -13.585938 10.175781 -13.8125 9.1875 -13.8125 C 7.894531 -13.8125 6.925781 -13.257812 6.28125 -12.15625 L 6.28125 0 L 1.671875 0 L 1.671875 -17.234375 Z M 6 -17.234375 "/></g></g></g><g fill="#113980" fill-opacity="1"><g transform="translate(165.710784, 76.952163)"><g><path d="M 1.046875 -8.765625 C 1.046875 -10.484375 1.375 -12.007812 2.03125 -13.34375 C 2.695312 -14.675781 3.644531 -15.707031 4.875 -16.4375 C 6.113281 -17.175781 7.550781 -17.546875 9.1875 -17.546875 C 11.507812 -17.546875 13.40625 -16.832031 14.875 -15.40625 C 16.34375 -13.988281 17.164062 -12.0625 17.34375 -9.625 L 17.375 -8.4375 C 17.375 -5.789062 16.632812 -3.671875 15.15625 -2.078125 C 13.675781 -0.484375 11.695312 0.3125 9.21875 0.3125 C 6.738281 0.3125 4.753906 -0.476562 3.265625 -2.0625 C 1.785156 -3.65625 1.046875 -5.820312 1.046875 -8.5625 Z M 5.65625 -8.4375 C 5.65625 -6.800781 5.960938 -5.550781 6.578125 -4.6875 C 7.191406 -3.820312 8.070312 -3.390625 9.21875 -3.390625 C 10.332031 -3.390625 11.203125 -3.816406 11.828125 -4.671875 C 12.453125 -5.523438 12.765625 -6.890625 12.765625 -8.765625 C 12.765625 -10.367188 12.453125 -11.613281 11.828125 -12.5 C 11.203125 -13.382812 10.320312 -13.828125 9.1875 -13.828125 C 8.0625 -13.828125 7.191406 -13.382812 6.578125 -12.5 C 5.960938 -11.625 5.65625 -10.269531 5.65625 -8.4375 Z M 5.65625 -8.4375 "/></g></g></g><g fill="#113980" fill-opacity="1"><g transform="translate(184.137704, 76.952163)"><g><path d="M 8.21875 -5.625 L 11.421875 -17.234375 L 16.21875 -17.234375 L 10.40625 0 L 6.015625 0 L 0.203125 -17.234375 L 5.015625 -17.234375 Z M 8.21875 -5.625 "/></g></g></g><g fill="#113980" fill-opacity="1"><g transform="translate(200.607368, 76.952163)"><g><path d="M 6.625 0 L 2 0 L 2 -17.234375 L 6.625 -17.234375 Z M 1.734375 -21.6875 C 1.734375 -22.375 1.960938 -22.941406 2.421875 -23.390625 C 2.890625 -23.835938 3.519531 -24.0625 4.3125 -24.0625 C 5.101562 -24.0625 5.726562 -23.835938 6.1875 -23.390625 C 6.65625 -22.941406 6.890625 -22.375 6.890625 -21.6875 C 6.890625 -20.988281 6.65625 -20.414062 6.1875 -19.96875 C 5.71875 -19.519531 5.09375 -19.296875 4.3125 -19.296875 C 3.539062 -19.296875 2.914062 -19.519531 2.4375 -19.96875 C 1.96875 -20.414062 1.734375 -20.988281 1.734375 -21.6875 Z M 1.734375 -21.6875 "/></g></g></g><g fill="#113980" fill-opacity="1"><g transform="translate(209.247978, 76.952163)"><g><path d="M 11.75 0 C 11.539062 -0.414062 11.390625 -0.929688 11.296875 -1.546875 C 10.179688 -0.304688 8.726562 0.3125 6.9375 0.3125 C 5.25 0.3125 3.847656 -0.171875 2.734375 -1.140625 C 1.628906 -2.117188 1.078125 -3.351562 1.078125 -4.84375 C 1.078125 -6.664062 1.753906 -8.066406 3.109375 -9.046875 C 4.460938 -10.023438 6.421875 -10.519531 8.984375 -10.53125 L 11.09375 -10.53125 L 11.09375 -11.515625 C 11.09375 -12.304688 10.890625 -12.941406 10.484375 -13.421875 C 10.078125 -13.898438 9.429688 -14.140625 8.546875 -14.140625 C 7.773438 -14.140625 7.164062 -13.953125 6.71875 -13.578125 C 6.28125 -13.210938 6.0625 -12.703125 6.0625 -12.046875 L 1.46875 -12.046875 C 1.46875 -13.046875 1.773438 -13.96875 2.390625 -14.8125 C 3.003906 -15.664062 3.875 -16.332031 5 -16.8125 C 6.125 -17.300781 7.390625 -17.546875 8.796875 -17.546875 C 10.910156 -17.546875 12.59375 -17.007812 13.84375 -15.9375 C 15.09375 -14.875 15.71875 -13.378906 15.71875 -11.453125 L 15.71875 -3.984375 C 15.726562 -2.347656 15.957031 -1.109375 16.40625 -0.265625 L 16.40625 0 Z M 7.953125 -3.203125 C 8.628906 -3.203125 9.253906 -3.351562 9.828125 -3.65625 C 10.398438 -3.957031 10.820312 -4.363281 11.09375 -4.875 L 11.09375 -7.828125 L 9.375 -7.828125 C 7.070312 -7.828125 5.847656 -7.035156 5.703125 -5.453125 L 5.6875 -5.171875 C 5.6875 -4.597656 5.882812 -4.125 6.28125 -3.75 C 6.6875 -3.382812 7.242188 -3.203125 7.953125 -3.203125 Z M 7.953125 -3.203125 "/></g></g></g><g fill="#113980" fill-opacity="1"><g transform="translate(107.645277, 98.814387)"><g><path d="M 1 0 L 1 -11.15625 L 4.4375 -11.15625 C 5.414062 -11.15625 6.289062 -10.9375 7.0625 -10.5 C 7.84375 -10.0625 8.445312 -9.429688 8.875 -8.609375 C 9.3125 -7.796875 9.53125 -6.867188 9.53125 -5.828125 L 9.53125 -5.328125 C 9.53125 -4.285156 9.316406 -3.359375 8.890625 -2.546875 C 8.460938 -1.742188 7.859375 -1.117188 7.078125 -0.671875 C 6.304688 -0.222656 5.429688 0 4.453125 0 Z M 3.296875 -9.296875 L 3.296875 -1.84375 L 4.40625 -1.84375 C 5.3125 -1.84375 6 -2.132812 6.46875 -2.71875 C 6.945312 -3.3125 7.191406 -4.15625 7.203125 -5.25 L 7.203125 -5.84375 C 7.203125 -6.976562 6.960938 -7.835938 6.484375 -8.421875 C 6.015625 -9.003906 5.332031 -9.296875 4.4375 -9.296875 Z M 3.296875 -9.296875 "/></g></g></g><g fill="#113980" fill-opacity="1"><g transform="translate(117.84794, 98.814387)"><g><path d="M 7.71875 -4.84375 L 3.296875 -4.84375 L 3.296875 -1.84375 L 8.484375 -1.84375 L 8.484375 0 L 1 0 L 1 -11.15625 L 8.46875 -11.15625 L 8.46875 -9.296875 L 3.296875 -9.296875 L 3.296875 -6.640625 L 7.71875 -6.640625 Z M 7.71875 -4.84375 "/></g></g></g><g fill="#113980" fill-opacity="1"><g transform="translate(126.678494, 98.814387)"><g><path d="M 3.296875 -3.9375 L 3.296875 0 L 1 0 L 1 -11.15625 L 5.359375 -11.15625 C 6.191406 -11.15625 6.925781 -11.003906 7.5625 -10.703125 C 8.195312 -10.398438 8.6875 -9.960938 9.03125 -9.390625 C 9.375 -8.828125 9.546875 -8.1875 9.546875 -7.46875 C 9.546875 -6.375 9.171875 -5.507812 8.421875 -4.875 C 7.671875 -4.25 6.632812 -3.9375 5.3125 -3.9375 Z M 3.296875 -5.796875 L 5.359375 -5.796875 C 5.960938 -5.796875 6.421875 -5.9375 6.734375 -6.21875 C 7.054688 -6.507812 7.21875 -6.921875 7.21875 -7.453125 C 7.21875 -7.992188 7.054688 -8.429688 6.734375 -8.765625 C 6.410156 -9.109375 5.96875 -9.285156 5.40625 -9.296875 L 3.296875 -9.296875 Z M 3.296875 -5.796875 "/></g></g></g><g fill="#113980" fill-opacity="1"><g transform="translate(136.804502, 98.814387)"><g><path d="M 7.296875 -2.296875 L 3.265625 -2.296875 L 2.5 0 L 0.046875 0 L 4.203125 -11.15625 L 6.34375 -11.15625 L 10.515625 0 L 8.078125 0 Z M 3.890625 -4.15625 L 6.671875 -4.15625 L 5.28125 -8.34375 Z M 3.890625 -4.15625 "/></g></g></g><g fill="#113980" fill-opacity="1"><g transform="translate(147.367439, 98.814387)"><g><path d="M 5.125 -4.09375 L 3.296875 -4.09375 L 3.296875 0 L 1 0 L 1 -11.15625 L 5.140625 -11.15625 C 6.460938 -11.15625 7.476562 -10.863281 8.1875 -10.28125 C 8.90625 -9.695312 9.265625 -8.867188 9.265625 -7.796875 C 9.265625 -7.023438 9.097656 -6.382812 8.765625 -5.875 C 8.441406 -5.375 7.945312 -4.972656 7.28125 -4.671875 L 9.6875 -0.109375 L 9.6875 0 L 7.21875 0 Z M 3.296875 -5.953125 L 5.15625 -5.953125 C 5.726562 -5.953125 6.171875 -6.097656 6.484375 -6.390625 C 6.804688 -6.679688 6.96875 -7.085938 6.96875 -7.609375 C 6.96875 -8.128906 6.816406 -8.539062 6.515625 -8.84375 C 6.222656 -9.144531 5.765625 -9.296875 5.140625 -9.296875 L 3.296875 -9.296875 Z M 3.296875 -5.953125 "/></g></g></g><g fill="#113980" fill-opacity="1"><g transform="translate(157.386132, 98.814387)"><g><path d="M 9.40625 -9.296875 L 5.984375 -9.296875 L 5.984375 0 L 3.6875 0 L 3.6875 -9.296875 L 0.3125 -9.296875 L 0.3125 -11.15625 L 9.40625 -11.15625 Z M 9.40625 -9.296875 "/></g></g></g><g fill="#113980" fill-opacity="1"><g transform="translate(167.098208, 98.814387)"><g><path d="M 4 -11.15625 L 6.875 -3.0625 L 9.71875 -11.15625 L 12.75 -11.15625 L 12.75 0 L 10.4375 0 L 10.4375 -3.046875 L 10.671875 -8.3125 L 7.65625 0 L 6.078125 0 L 3.0625 -8.3125 L 3.296875 -3.046875 L 3.296875 0 L 1 0 L 1 -11.15625 Z M 4 -11.15625 "/></g></g></g><g fill="#113980" fill-opacity="1"><g transform="translate(180.849956, 98.814387)"><g><path d="M 7.71875 -4.84375 L 3.296875 -4.84375 L 3.296875 -1.84375 L 8.484375 -1.84375 L 8.484375 0 L 1 0 L 1 -11.15625 L 8.46875 -11.15625 L 8.46875 -9.296875 L 3.296875 -9.296875 L 3.296875 -6.640625 L 7.71875 -6.640625 Z M 7.71875 -4.84375 "/></g></g></g><g fill="#113980" fill-opacity="1"><g transform="translate(189.68051, 98.814387)"><g><path d="M 10.078125 0 L 7.78125 0 L 3.296875 -7.34375 L 3.296875 0 L 1 0 L 1 -11.15625 L 3.296875 -11.15625 L 7.78125 -3.796875 L 7.78125 -11.15625 L 10.078125 -11.15625 Z M 10.078125 0 "/></g></g></g><g fill="#113980" fill-opacity="1"><g transform="translate(200.764695, 98.814387)"><g><path d="M 9.40625 -9.296875 L 5.984375 -9.296875 L 5.984375 0 L 3.6875 0 L 3.6875 -9.296875 L 0.3125 -9.296875 L 0.3125 -11.15625 L 9.40625 -11.15625 Z M 9.40625 -9.296875 "/></g></g></g><g fill="#113980" fill-opacity="1"><g transform="translate(210.476771, 98.814387)"><g/></g></g><g fill="#113980" fill-opacity="1"><g transform="translate(214.386131, 98.814387)"><g><path d="M 10.171875 -5.328125 C 10.171875 -4.234375 9.972656 -3.269531 9.578125 -2.4375 C 9.191406 -1.613281 8.632812 -0.972656 7.90625 -0.515625 C 7.1875 -0.0664062 6.359375 0.15625 5.421875 0.15625 C 4.503906 0.15625 3.679688 -0.0664062 2.953125 -0.515625 C 2.222656 -0.960938 1.660156 -1.597656 1.265625 -2.421875 C 0.867188 -3.242188 0.664062 -4.191406 0.65625 -5.265625 L 0.65625 -5.8125 C 0.65625 -6.914062 0.851562 -7.882812 1.25 -8.71875 C 1.644531 -9.550781 2.203125 -10.191406 2.921875 -10.640625 C 3.648438 -11.085938 4.476562 -11.3125 5.40625 -11.3125 C 6.34375 -11.3125 7.171875 -11.085938 7.890625 -10.640625 C 8.617188 -10.191406 9.179688 -9.550781 9.578125 -8.71875 C 9.972656 -7.882812 10.171875 -6.921875 10.171875 -5.828125 Z M 7.84375 -5.828125 C 7.84375 -7.003906 7.628906 -7.894531 7.203125 -8.5 C 6.785156 -9.113281 6.1875 -9.421875 5.40625 -9.421875 C 4.632812 -9.421875 4.039062 -9.117188 3.625 -8.515625 C 3.207031 -7.910156 2.992188 -7.03125 2.984375 -5.875 L 2.984375 -5.328125 C 2.984375 -4.191406 3.191406 -3.304688 3.609375 -2.671875 C 4.035156 -2.046875 4.640625 -1.734375 5.421875 -1.734375 C 6.203125 -1.734375 6.796875 -2.035156 7.203125 -2.640625 C 7.617188 -3.242188 7.832031 -4.128906 7.84375 -5.296875 Z M 7.84375 -5.828125 "/></g></g></g><g fill="#113980" fill-opacity="1"><g transform="translate(225.225022, 98.814387)"><g><path d="M 7.71875 -4.5625 L 3.296875 -4.5625 L 3.296875 0 L 1 0 L 1 -11.15625 L 8.265625 -11.15625 L 8.265625 -9.296875 L 3.296875 -9.296875 L 3.296875 -6.421875 L 7.71875 -6.421875 Z M 7.71875 -4.5625 "/></g></g></g><g fill="#113980" fill-opacity="1"><g transform="translate(233.825614, 98.814387)"><g/></g></g><g fill="#113980" fill-opacity="1"><g transform="translate(237.734974, 98.814387)"><g><path d="M 7.71875 -4.84375 L 3.296875 -4.84375 L 3.296875 -1.84375 L 8.484375 -1.84375 L 8.484375 0 L 1 0 L 1 -11.15625 L 8.46875 -11.15625 L 8.46875 -9.296875 L 3.296875 -9.296875 L 3.296875 -6.640625 L 7.71875 -6.640625 Z M 7.71875 -4.84375 "/></g></g></g><g fill="#113980" fill-opacity="1"><g transform="translate(246.565528, 98.814387)"><g><path d="M 7.296875 -2.296875 L 3.265625 -2.296875 L 2.5 0 L 0.046875 0 L 4.203125 -11.15625 L 6.34375 -11.15625 L 10.515625 0 L 8.078125 0 Z M 3.890625 -4.15625 L 6.671875 -4.15625 L 5.28125 -8.34375 Z M 3.890625 -4.15625 "/></g></g></g><g fill="#113980" fill-opacity="1"><g transform="translate(257.128465, 98.814387)"><g><path d="M 5.125 -4.09375 L 3.296875 -4.09375 L 3.296875 0 L 1 0 L 1 -11.15625 L 5.140625 -11.15625 C 6.460938 -11.15625 7.476562 -10.863281 8.1875 -10.28125 C 8.90625 -9.695312 9.265625 -8.867188 9.265625 -7.796875 C 9.265625 -7.023438 9.097656 -6.382812 8.765625 -5.875 C 8.441406 -5.375 7.945312 -4.972656 7.28125 -4.671875 L 9.6875 -0.109375 L 9.6875 0 L 7.21875 0 Z M 3.296875 -5.953125 L 5.15625 -5.953125 C 5.726562 -5.953125 6.171875 -6.097656 6.484375 -6.390625 C 6.804688 -6.679688 6.96875 -7.085938 6.96875 -7.609375 C 6.96875 -8.128906 6.816406 -8.539062 6.515625 -8.84375 C 6.222656 -9.144531 5.765625 -9.296875 5.140625 -9.296875 L 3.296875 -9.296875 Z M 3.296875 -5.953125 "/></g></g></g><g fill="#113980" fill-opacity="1"><g transform="translate(267.147157, 98.814387)"><g><path d="M 3.296875 -1.84375 L 8.1875 -1.84375 L 8.1875 0 L 1 0 L 1 -11.15625 L 3.296875 -11.15625 Z M 3.296875 -1.84375 "/></g></g></g><g fill="#113980" fill-opacity="1"><g transform="translate(275.648098, 98.814387)"><g><path d="M 4.84375 -6.140625 L 7.171875 -11.15625 L 9.6875 -11.15625 L 6.015625 -4.046875 L 6.015625 0 L 3.6875 0 L 3.6875 -4.046875 L 0.015625 -11.15625 L 2.53125 -11.15625 Z M 4.84375 -6.140625 "/></g></g></g><g fill="#113980" fill-opacity="1"><g transform="translate(285.352509, 98.814387)"><g/></g></g><g fill="#113980" fill-opacity="1"><g transform="translate(289.261869, 98.814387)"><g><path d="M 7.71875 -4.84375 L 3.296875 -4.84375 L 3.296875 -1.84375 L 8.484375 -1.84375 L 8.484375 0 L 1 0 L 1 -11.15625 L 8.46875 -11.15625 L 8.46875 -9.296875 L 3.296875 -9.296875 L 3.296875 -6.640625 L 7.71875 -6.640625 Z M 7.71875 -4.84375 "/></g></g></g><g fill="#113980" fill-opacity="1"><g transform="translate(298.092423, 98.814387)"><g><path d="M 1 0 L 1 -11.15625 L 4.4375 -11.15625 C 5.414062 -11.15625 6.289062 -10.9375 7.0625 -10.5 C 7.84375 -10.0625 8.445312 -9.429688 8.875 -8.609375 C 9.3125 -7.796875 9.53125 -6.867188 9.53125 -5.828125 L 9.53125 -5.328125 C 9.53125 -4.285156 9.316406 -3.359375 8.890625 -2.546875 C 8.460938 -1.742188 7.859375 -1.117188 7.078125 -0.671875 C 6.304688 -0.222656 5.429688 0 4.453125 0 Z M 3.296875 -9.296875 L 3.296875 -1.84375 L 4.40625 -1.84375 C 5.3125 -1.84375 6 -2.132812 6.46875 -2.71875 C 6.945312 -3.3125 7.191406 -4.15625 7.203125 -5.25 L 7.203125 -5.84375 C 7.203125 -6.976562 6.960938 -7.835938 6.484375 -8.421875 C 6.015625 -9.003906 5.332031 -9.296875 4.4375 -9.296875 Z M 3.296875 -9.296875 "/></g></g></g><g fill="#113980" fill-opacity="1"><g transform="translate(308.295085, 98.814387)"><g><path d="M 9.453125 -11.15625 L 9.453125 -3.8125 C 9.453125 -2.59375 9.066406 -1.625 8.296875 -0.90625 C 7.535156 -0.195312 6.492188 0.15625 5.171875 0.15625 C 3.867188 0.15625 2.832031 -0.1875 2.0625 -0.875 C 1.289062 -1.570312 0.898438 -2.519531 0.890625 -3.71875 L 0.890625 -11.15625 L 3.1875 -11.15625 L 3.1875 -3.796875 C 3.1875 -3.066406 3.359375 -2.53125 3.703125 -2.1875 C 4.054688 -1.851562 4.546875 -1.6875 5.171875 -1.6875 C 6.460938 -1.6875 7.117188 -2.367188 7.140625 -3.734375 L 7.140625 -11.15625 Z M 9.453125 -11.15625 "/></g></g></g><g fill="#113980" fill-opacity="1"><g transform="translate(318.62806, 98.814387)"><g><path d="M 9.765625 -3.71875 C 9.671875 -2.519531 9.222656 -1.570312 8.421875 -0.875 C 7.628906 -0.1875 6.578125 0.15625 5.265625 0.15625 C 3.835938 0.15625 2.710938 -0.320312 1.890625 -1.28125 C 1.066406 -2.25 0.65625 -3.578125 0.65625 -5.265625 L 0.65625 -5.9375 C 0.65625 -7.007812 0.84375 -7.953125 1.21875 -8.765625 C 1.601562 -9.585938 2.144531 -10.21875 2.84375 -10.65625 C 3.550781 -11.09375 4.367188 -11.3125 5.296875 -11.3125 C 6.585938 -11.3125 7.625 -10.96875 8.40625 -10.28125 C 9.195312 -9.59375 9.65625 -8.625 9.78125 -7.375 L 7.46875 -7.375 C 7.414062 -8.09375 7.21875 -8.613281 6.875 -8.9375 C 6.53125 -9.269531 6.003906 -9.4375 5.296875 -9.4375 C 4.523438 -9.4375 3.945312 -9.160156 3.5625 -8.609375 C 3.1875 -8.054688 2.992188 -7.203125 2.984375 -6.046875 L 2.984375 -5.203125 C 2.984375 -3.992188 3.164062 -3.109375 3.53125 -2.546875 C 3.90625 -1.992188 4.484375 -1.71875 5.265625 -1.71875 C 5.972656 -1.71875 6.503906 -1.878906 6.859375 -2.203125 C 7.210938 -2.535156 7.410156 -3.039062 7.453125 -3.71875 Z M 9.765625 -3.71875 "/></g></g></g><g fill="#113980" fill-opacity="1"><g transform="translate(328.899711, 98.814387)"><g><path d="M 7.296875 -2.296875 L 3.265625 -2.296875 L 2.5 0 L 0.046875 0 L 4.203125 -11.15625 L 6.34375 -11.15625 L 10.515625 0 L 8.078125 0 Z M 3.890625 -4.15625 L 6.671875 -4.15625 L 5.28125 -8.34375 Z M 3.890625 -4.15625 "/></g></g></g><g fill="#113980" fill-opacity="1"><g transform="translate(339.462648, 98.814387)"><g><path d="M 9.40625 -9.296875 L 5.984375 -9.296875 L 5.984375 0 L 3.6875 0 L 3.6875 -9.296875 L 0.3125 -9.296875 L 0.3125 -11.15625 L 9.40625 -11.15625 Z M 9.40625 -9.296875 "/></g></g></g><g fill="#113980" fill-opacity="1"><g transform="translate(349.174724, 98.814387)"><g><path d="M 3.4375 0 L 1.140625 0 L 1.140625 -11.15625 L 3.4375 -11.15625 Z M 3.4375 0 "/></g></g></g><g fill="#113980" fill-opacity="1"><g transform="translate(353.750975, 98.814387)"><g><path d="M 10.171875 -5.328125 C 10.171875 -4.234375 9.972656 -3.269531 9.578125 -2.4375 C 9.191406 -1.613281 8.632812 -0.972656 7.90625 -0.515625 C 7.1875 -0.0664062 6.359375 0.15625 5.421875 0.15625 C 4.503906 0.15625 3.679688 -0.0664062 2.953125 -0.515625 C 2.222656 -0.960938 1.660156 -1.597656 1.265625 -2.421875 C 0.867188 -3.242188 0.664062 -4.191406 0.65625 -5.265625 L 0.65625 -5.8125 C 0.65625 -6.914062 0.851562 -7.882812 1.25 -8.71875 C 1.644531 -9.550781 2.203125 -10.191406 2.921875 -10.640625 C 3.648438 -11.085938 4.476562 -11.3125 5.40625 -11.3125 C 6.34375 -11.3125 7.171875 -11.085938 7.890625 -10.640625 C 8.617188 -10.191406 9.179688 -9.550781 9.578125 -8.71875 C 9.972656 -7.882812 10.171875 -6.921875 10.171875 -5.828125 Z M 7.84375 -5.828125 C 7.84375 -7.003906 7.628906 -7.894531 7.203125 -8.5 C 6.785156 -9.113281 6.1875 -9.421875 5.40625 -9.421875 C 4.632812 -9.421875 4.039062 -9.117188 3.625 -8.515625 C 3.207031 -7.910156 2.992188 -7.03125 2.984375 -5.875 L 2.984375 -5.328125 C 2.984375 -4.191406 3.191406 -3.304688 3.609375 -2.671875 C 4.035156 -2.046875 4.640625 -1.734375 5.421875 -1.734375 C 6.203125 -1.734375 6.796875 -2.035156 7.203125 -2.640625 C 7.617188 -3.242188 7.832031 -4.128906 7.84375 -5.296875 Z M 7.84375 -5.828125 "/></g></g></g><g fill="#113980" fill-opacity="1"><g transform="translate(364.589867, 98.814387)"><g><path d="M 10.078125 0 L 7.78125 0 L 3.296875 -7.34375 L 3.296875 0 L 1 0 L 1 -11.15625 L 3.296875 -11.15625 L 7.78125 -3.796875 L 7.78125 -11.15625 L 10.078125 -11.15625 Z M 10.078125 0 "/></g></g></g><g fill="#113980" fill-opacity="1"><g transform="translate(375.674051, 98.814387)"><g/></g></g><g fill="#113980" fill-opacity="1"><g transform="translate(379.583411, 98.814387)"><g><path d="M 0.546875 -3 C 0.546875 -3.519531 0.6875 -4 0.96875 -4.4375 C 1.257812 -4.875 1.789062 -5.363281 2.5625 -5.90625 C 2.226562 -6.351562 1.96875 -6.769531 1.78125 -7.15625 C 1.59375 -7.550781 1.5 -7.957031 1.5 -8.375 C 1.5 -9.25 1.773438 -9.957031 2.328125 -10.5 C 2.878906 -11.039062 3.617188 -11.3125 4.546875 -11.3125 C 5.378906 -11.3125 6.0625 -11.0625 6.59375 -10.5625 C 7.132812 -10.070312 7.40625 -9.457031 7.40625 -8.71875 C 7.40625 -7.832031 6.953125 -7.046875 6.046875 -6.359375 L 5.1875 -5.75 L 7.109375 -3.5 C 7.410156 -4.09375 7.5625 -4.75 7.5625 -5.46875 L 9.453125 -5.46875 C 9.453125 -4.019531 9.117188 -2.84375 8.453125 -1.9375 L 10.125 0 L 7.609375 0 L 7.03125 -0.65625 C 6.207031 -0.113281 5.257812 0.15625 4.1875 0.15625 C 3.082031 0.15625 2.195312 -0.132812 1.53125 -0.71875 C 0.875 -1.300781 0.546875 -2.0625 0.546875 -3 Z M 4.296875 -1.625 C 4.828125 -1.625 5.332031 -1.769531 5.8125 -2.0625 L 3.609375 -4.609375 L 3.453125 -4.5 C 2.992188 -4.113281 2.765625 -3.65625 2.765625 -3.125 C 2.765625 -2.6875 2.90625 -2.328125 3.1875 -2.046875 C 3.476562 -1.765625 3.847656 -1.625 4.296875 -1.625 Z M 3.484375 -8.40625 C 3.484375 -8.03125 3.707031 -7.550781 4.15625 -6.96875 L 4.75 -7.359375 C 5.050781 -7.546875 5.257812 -7.734375 5.375 -7.921875 C 5.488281 -8.109375 5.546875 -8.328125 5.546875 -8.578125 C 5.546875 -8.835938 5.453125 -9.0625 5.265625 -9.25 C 5.078125 -9.4375 4.835938 -9.53125 4.546875 -9.53125 C 4.222656 -9.53125 3.960938 -9.425781 3.765625 -9.21875 C 3.578125 -9.019531 3.484375 -8.75 3.484375 -8.40625 Z M 3.484375 -8.40625 "/></g></g></g><g fill="#113980" fill-opacity="1"><g transform="translate(389.885724, 98.814387)"><g/></g></g><g fill="#113980" fill-opacity="1"><g transform="translate(393.795084, 98.814387)"><g><path d="M 9.765625 -3.71875 C 9.671875 -2.519531 9.222656 -1.570312 8.421875 -0.875 C 7.628906 -0.1875 6.578125 0.15625 5.265625 0.15625 C 3.835938 0.15625 2.710938 -0.320312 1.890625 -1.28125 C 1.066406 -2.25 0.65625 -3.578125 0.65625 -5.265625 L 0.65625 -5.9375 C 0.65625 -7.007812 0.84375 -7.953125 1.21875 -8.765625 C 1.601562 -9.585938 2.144531 -10.21875 2.84375 -10.65625 C 3.550781 -11.09375 4.367188 -11.3125 5.296875 -11.3125 C 6.585938 -11.3125 7.625 -10.96875 8.40625 -10.28125 C 9.195312 -9.59375 9.65625 -8.625 9.78125 -7.375 L 7.46875 -7.375 C 7.414062 -8.09375 7.21875 -8.613281 6.875 -8.9375 C 6.53125 -9.269531 6.003906 -9.4375 5.296875 -9.4375 C 4.523438 -9.4375 3.945312 -9.160156 3.5625 -8.609375 C 3.1875 -8.054688 2.992188 -7.203125 2.984375 -6.046875 L 2.984375 -5.203125 C 2.984375 -3.992188 3.164062 -3.109375 3.53125 -2.546875 C 3.90625 -1.992188 4.484375 -1.71875 5.265625 -1.71875 C 5.972656 -1.71875 6.503906 -1.878906 6.859375 -2.203125 C 7.210938 -2.535156 7.410156 -3.039062 7.453125 -3.71875 Z M 9.765625 -3.71875 "/></g></g></g><g fill="#113980" fill-opacity="1"><g transform="translate(404.066735, 98.814387)"><g><path d="M 7.296875 -2.296875 L 3.265625 -2.296875 L 2.5 0 L 0.046875 0 L 4.203125 -11.15625 L 6.34375 -11.15625 L 10.515625 0 L 8.078125 0 Z M 3.890625 -4.15625 L 6.671875 -4.15625 L 5.28125 -8.34375 Z M 3.890625 -4.15625 "/></g></g></g><g fill="#113980" fill-opacity="1"><g transform="translate(414.629672, 98.814387)"><g><path d="M 5.125 -4.09375 L 3.296875 -4.09375 L 3.296875 0 L 1 0 L 1 -11.15625 L 5.140625 -11.15625 C 6.460938 -11.15625 7.476562 -10.863281 8.1875 -10.28125 C 8.90625 -9.695312 9.265625 -8.867188 9.265625 -7.796875 C 9.265625 -7.023438 9.097656 -6.382812 8.765625 -5.875 C 8.441406 -5.375 7.945312 -4.972656 7.28125 -4.671875 L 9.6875 -0.109375 L 9.6875 0 L 7.21875 0 Z M 3.296875 -5.953125 L 5.15625 -5.953125 C 5.726562 -5.953125 6.171875 -6.097656 6.484375 -6.390625 C 6.804688 -6.679688 6.96875 -7.085938 6.96875 -7.609375 C 6.96875 -8.128906 6.816406 -8.539062 6.515625 -8.84375 C 6.222656 -9.144531 5.765625 -9.296875 5.140625 -9.296875 L 3.296875 -9.296875 Z M 3.296875 -5.953125 "/></g></g></g><g fill="#113980" fill-opacity="1"><g transform="translate(424.648364, 98.814387)"><g><path d="M 7.71875 -4.84375 L 3.296875 -4.84375 L 3.296875 -1.84375 L 8.484375 -1.84375 L 8.484375 0 L 1 0 L 1 -11.15625 L 8.46875 -11.15625 L 8.46875 -9.296875 L 3.296875 -9.296875 L 3.296875 -6.640625 L 7.71875 -6.640625 Z M 7.71875 -4.84375 "/></g></g></g></svg>